<?xml version="1.0" standalone="no"?>
<!DOCTYPE svg PUBLIC "-//W3C//DTD SVG 20010904//EN"
 "http://www.w3.org/TR/2001/REC-SVG-20010904/DTD/svg10.dtd">
<svg version="1.0" xmlns="http://www.w3.org/2000/svg"
 width="1024.000000pt" height="1024.000000pt" viewBox="0 0 1024.000000 1024.000000"
 preserveAspectRatio="xMidYMid meet">
<metadata>
Created by potrace 1.14, written by Peter Selinger 2001-2017
</metadata>
<g transform="translate(0.000000,1024.000000) scale(0.100000,-0.100000)"
fill="#000000" stroke="none">
<path d="M1 7808 c1 -1369 5 -2394 10 -2343 39 424 81 666 175 1010 263 967
810 1839 1569 2501 806 703 1835 1144 2890 1238 94 9 186 17 205 19 19 2
-1064 5 -2407 5 l-2443 2 1 -2432z"/>
<path d="M5445 10229 c357 -33 431 -43 670 -90 848 -168 1632 -544 2300 -1102
251 -210 551 -522 744 -772 427 -554 726 -1156 905 -1820 85 -317 134 -604
165 -970 5 -58 9 918 10 2333 l1 2432 -2442 -1 c-1367 -1 -2403 -5 -2353 -10z"/>
<path d="M4705 8993 c-76 -14 -155 -38 -95 -29 111 18 172 31 176 38 3 4 4 8
2 7 -2 -1 -39 -8 -83 -16z"/>
<path d="M4850 8993 c-99 -46 -217 -107 -231 -119 -8 -8 -19 -14 -23 -14 -9 0
-120 -78 -206 -145 -89 -69 -224 -206 -288 -290 -28 -38 -57 -75 -62 -82 -6
-7 -10 -14 -10 -17 0 -3 -12 -22 -26 -43 -37 -54 -97 -177 -123 -253 -13 -36
-27 -74 -31 -85 -5 -11 -14 -42 -20 -70 -6 -27 -16 -68 -21 -90 -15 -59 -22
-447 -10 -535 16 -120 40 -253 50 -275 5 -11 14 -38 19 -60 27 -104 44 -161
53 -169 5 -6 9 -16 9 -24 0 -8 7 -28 14 -45 8 -18 31 -72 51 -122 49 -121 72
-173 143 -325 16 -36 41 -90 54 -120 14 -30 36 -80 51 -110 77 -166 118 -255
157 -345 23 -55 49 -114 56 -132 8 -17 14 -34 14 -38 0 -4 6 -21 14 -38 7 -18
24 -61 36 -97 12 -36 25 -72 28 -80 3 -8 7 -19 7 -25 1 -5 5 -17 8 -25 28 -72
51 -420 28 -420 -6 0 -11 -13 -11 -30 0 -39 -20 -133 -31 -145 -5 -5 -9 -15
-9 -23 0 -16 -41 -104 -52 -112 -3 -3 -10 -18 -13 -33 -4 -16 -14 -31 -21 -34
-8 -3 -14 -9 -14 -15 0 -9 -29 -51 -75 -107 -44 -55 -213 -201 -232 -201 -7 0
-13 -4 -13 -10 0 -5 -7 -10 -16 -10 -10 0 11 25 51 62 150 138 218 225 289
373 62 127 59 119 83 235 21 105 22 199 0 310 -22 117 -44 211 -55 235 -6 11
-18 43 -27 70 -20 59 -85 215 -125 300 -51 110 -70 154 -70 164 0 5 -3 11 -8
13 -4 2 -30 49 -57 105 -32 67 -52 98 -58 90 -5 -8 -6 -5 -3 8 3 11 -5 40 -18
66 l-23 47 -19 -25 c-14 -20 -20 -22 -29 -11 -16 21 -35 20 -35 -2 0 -17 -7
-20 -40 -20 -33 0 -40 -3 -40 -20 0 -17 -7 -20 -40 -20 -33 0 -40 -3 -40 -20
0 -17 -7 -20 -40 -20 -33 0 -40 -3 -40 -20 0 -17 -7 -20 -40 -20 -33 0 -40 -3
-40 -20 0 -17 -7 -20 -40 -20 -33 0 -40 -3 -40 -20 0 -17 -7 -20 -40 -20 -22
0 -40 -4 -40 -10 0 -5 -18 -10 -40 -10 -22 0 -40 -4 -40 -10 0 -6 -33 -10 -80
-10 -73 0 -80 -2 -80 -20 0 -18 -7 -20 -80 -20 -47 0 -80 -4 -80 -10 0 -6
-100 -10 -280 -10 -180 0 -280 4 -280 10 0 6 -18 10 -40 10 -22 0 -40 5 -40
10 0 6 -18 10 -40 10 -22 0 -40 5 -40 10 0 6 -18 10 -40 10 -43 0 -45 4 -53
105 -2 24 -4 14 -5 -27 -1 -37 2 -69 7 -72 5 -3 6 -26 3 -52 -2 -25 -1 -49 5
-53 5 -3 14 -51 21 -105 7 -55 16 -104 21 -110 5 -6 12 -29 15 -51 4 -22 14
-62 23 -90 38 -127 55 -182 63 -200 9 -18 31 -72 35 -85 1 -3 7 -18 14 -35 12
-32 14 -37 55 -127 14 -31 26 -61 26 -67 0 -5 4 -11 9 -13 4 -1 30 -41 56 -88
27 -47 78 -130 114 -185 76 -116 64 -100 138 -190 32 -38 65 -79 73 -90 20
-27 258 -264 295 -295 172 -142 200 -160 239 -160 25 0 42 3 176 36 36 9 70
17 75 18 6 1 24 9 41 17 21 11 37 13 48 7 9 -5 22 -7 29 -4 7 2 4 5 -5 5 -10
1 -18 6 -18 12 0 6 9 9 20 6 11 -3 18 -2 16 2 -2 3 7 11 20 18 28 13 31 6 7
-14 -16 -13 -14 -14 22 -8 22 4 45 10 50 15 6 4 28 11 50 15 22 4 45 10 50 15
6 4 34 13 63 20 28 6 55 16 58 21 3 5 12 9 20 9 8 0 36 9 62 21 26 11 63 27
82 36 254 112 455 253 563 396 30 40 94 167 103 208 27 107 27 268 1 389 -14
64 -28 117 -36 135 -5 11 -19 47 -31 80 -42 111 -132 289 -220 435 -136 228
-210 363 -210 387 0 6 -3 13 -7 15 -7 3 -50 87 -74 143 -4 11 -17 40 -27 65
-43 100 -92 231 -92 246 0 8 -5 25 -11 37 -23 41 -64 204 -85 332 -8 50 -19
104 -25 120 -15 44 -23 455 -11 555 15 121 40 271 51 300 5 14 17 52 27 85 18
64 94 267 104 275 3 3 20 34 37 70 97 193 216 359 392 543 41 42 70 77 65 77
-5 0 -25 -8 -44 -17z m-2490 -3173 c12 -8 11 -10 -7 -10 -13 0 -23 5 -23 10 0
13 11 13 30 0z m1610 -1820 c0 -5 -2 -10 -4 -10 -3 0 -8 5 -11 10 -3 6 -1 10
4 10 6 0 11 -4 11 -10z"/>
<path d="M4530 8966 c0 -2 7 -7 16 -10 8 -3 12 -2 9 4 -6 10 -25 14 -25 6z"/>
<path d="M4628 8943 c7 -3 16 -2 19 1 4 3 -2 6 -13 5 -11 0 -14 -3 -6 -6z"/>
<path d="M4530 8899 c0 -5 5 -7 10 -4 6 3 10 8 10 11 0 2 -4 4 -10 4 -5 0 -10
-5 -10 -11z"/>
<path d="M6255 8690 c3 -5 8 -10 11 -10 2 0 4 5 4 10 0 6 -5 10 -11 10 -5 0
-7 -4 -4 -10z"/>
<path d="M6185 8666 c-22 -13 -67 -37 -100 -55 -248 -136 -486 -327 -612 -491
-109 -144 -158 -238 -209 -405 -32 -106 -31 -420 1 -580 16 -79 68 -243 108
-340 34 -84 175 -356 233 -451 80 -131 119 -197 142 -244 9 -19 19 -37 22 -40
8 -8 110 -217 110 -225 0 -4 9 -26 19 -49 36 -76 49 -111 57 -141 4 -16 10
-34 14 -40 4 -5 11 -26 15 -45 4 -19 11 -41 16 -50 12 -21 40 -132 53 -210 6
-36 14 -70 18 -76 4 -5 12 -82 17 -170 11 -163 1 -436 -18 -472 -4 -9 -11 -37
-15 -62 -8 -54 -43 -172 -62 -209 -8 -14 -14 -31 -14 -38 0 -22 -104 -218
-155 -292 -74 -107 -78 -114 -100 -141 -27 -34 -222 -228 -265 -265 -54 -46
-153 -120 -170 -128 -8 -4 -36 -22 -61 -39 -25 -18 -55 -38 -65 -44 -34 -21
-9 -24 107 -13 371 34 623 85 806 165 17 8 35 14 41 14 8 0 30 9 127 50 96 41
252 122 355 186 126 78 340 231 340 243 0 4 12 14 28 23 32 19 281 270 341
343 22 28 52 65 67 83 29 36 179 261 208 313 48 86 101 192 138 279 22 52 46
109 54 125 7 17 16 44 20 60 4 17 10 35 14 40 4 6 11 26 15 45 4 19 11 41 15
50 21 41 64 233 84 370 7 47 16 93 21 104 16 37 11 551 -8 711 -9 83 -21 157
-26 165 -5 9 -12 40 -16 70 -4 30 -11 60 -15 65 -4 6 -13 39 -20 75 -6 36 -15
70 -20 75 -4 6 -11 26 -15 45 -4 19 -11 41 -16 50 -4 8 -20 51 -35 95 -16 44
-50 124 -76 178 -26 54 -48 99 -48 101 0 7 -134 234 -167 281 -128 187 -172
240 -350 422 -85 87 -157 152 -163 148 -6 -3 -9 -2 -8 3 3 10 -137 132 -152
132 -15 0 -12 -11 8 -27 16 -14 16 -14 0 -9 -23 7 -23 -10 -1 -23 10 -5 14
-13 10 -17 -4 -4 -13 -2 -19 4 -18 18 -28 14 -28 -12 0 -35 10 -56 26 -56 10
0 14 -12 14 -40 0 -22 5 -40 10 -40 6 0 10 -18 10 -40 0 -22 5 -40 10 -40 6 0
10 -18 10 -40 0 -33 3 -40 20 -40 18 0 20 -7 20 -80 0 -47 4 -80 10 -80 6 0
10 -33 10 -80 0 -47 4 -80 10 -80 6 0 10 -87 10 -240 0 -153 -4 -240 -10 -240
-6 0 -10 -33 -10 -80 0 -47 -4 -80 -10 -80 -5 0 -10 -18 -10 -40 0 -33 -3 -40
-20 -40 -17 0 -20 -7 -20 -40 0 -22 -4 -40 -10 -40 -5 0 -10 -18 -10 -40 0
-22 -4 -40 -10 -40 -5 0 -10 -18 -10 -40 0 -33 -3 -40 -20 -40 -17 0 -20 -7
-20 -40 0 -22 -4 -40 -10 -40 -5 0 -10 -18 -10 -40 0 -22 -4 -40 -10 -40 -5 0
-10 -18 -10 -40 0 -38 -2 -40 -30 -40 -28 0 -30 -2 -30 -40 0 -38 -2 -40 -30
-40 -28 0 -30 -2 -30 -40 0 -24 5 -40 12 -40 7 0 -6 -18 -27 -40 -21 -22 -45
-40 -52 -40 -8 0 -13 -14 -13 -40 l0 -40 -40 0 -40 0 0 -40 c0 -33 -3 -40 -20
-40 -16 0 -20 -7 -20 -35 0 -19 -7 -43 -17 -54 -16 -19 -16 -19 -33 1 -16 20
-16 19 -13 -18 l3 -39 -11 33 c-5 18 -14 30 -19 27 -6 -4 -10 0 -10 8 0 8 -7
21 -16 28 -9 7 -2 -14 16 -46 43 -81 67 -127 75 -145 12 -31 34 -63 47 -71 9
-6 9 -9 1 -9 -7 0 -2 -17 13 -44 14 -24 43 -86 65 -138 22 -51 44 -102 49
-113 34 -75 49 -115 55 -147 4 -21 11 -38 15 -38 5 0 11 -15 15 -32 3 -18 10
-42 15 -53 8 -18 20 -56 75 -245 22 -73 30 -266 16 -357 -15 -96 -72 -265
-123 -366 -73 -142 -141 -237 -267 -372 -144 -154 -381 -311 -621 -411 -36
-14 -79 -33 -97 -40 -17 -8 -37 -14 -45 -14 -8 0 -18 -4 -24 -9 -9 -9 -88 -33
-174 -52 -25 -6 -55 -15 -68 -21 -17 -9 -25 -9 -34 0 -9 9 -6 12 15 12 15 0
27 4 27 8 0 4 21 13 48 19 44 10 193 61 237 82 61 28 274 134 300 149 75 42
215 137 275 186 65 54 225 226 268 289 58 85 127 216 138 263 4 16 10 34 14
39 8 10 25 75 40 155 11 58 11 339 0 405 -16 93 -55 234 -94 340 -48 132 -268
584 -316 650 -4 6 -25 44 -48 85 -70 131 -98 182 -157 290 -99 180 -184 350
-241 485 -31 72 -62 144 -69 160 -11 26 -26 69 -30 85 -9 37 -28 99 -35 115
-8 19 -26 92 -35 145 -33 191 -31 424 4 555 12 44 26 89 30 100 19 47 66 150
71 155 3 3 14 21 24 40 11 19 22 37 25 40 3 3 18 23 33 45 36 53 156 172 338
338 13 12 33 27 44 32 20 10 34 36 19 34 -4 -1 -26 -11 -48 -23z m710 -336 c3
-5 1 -10 -4 -10 -6 0 -11 5 -11 10 0 6 2 10 4 10 3 0 8 -4 11 -10z m-505
-2336 c0 -8 -5 -12 -10 -9 -6 4 -8 11 -5 16 9 14 15 11 15 -7z m-1110 -2614
c0 -5 -4 -10 -10 -10 -5 0 -10 5 -10 10 0 6 5 10 10 10 6 0 10 -4 10 -10z"/>
<path d="M6480 8661 c0 -8 41 -23 47 -17 2 1 -8 8 -22 14 -14 6 -25 8 -25 3z"/>
<path d="M6590 8600 c0 -5 5 -10 10 -10 6 0 10 5 10 10 0 6 -4 10 -10 10 -5 0
-10 -4 -10 -10z"/>
<path d="M6610 8570 c0 -5 5 -10 10 -10 6 0 10 5 10 10 0 6 -4 10 -10 10 -5 0
-10 -4 -10 -10z"/>
<path d="M6642 8560 c0 -14 2 -19 5 -12 2 6 2 18 0 25 -3 6 -5 1 -5 -13z"/>
<path d="M6671 8545 c3 -11 14 -21 26 -23 12 -2 24 -9 27 -17 3 -9 0 -12 -10
-8 -7 3 -14 0 -14 -7 0 -8 9 -10 24 -6 32 8 64 -3 44 -15 -7 -5 -8 -9 -3 -9 6
0 16 4 23 8 8 6 1 13 -23 25 -19 9 -35 21 -35 27 0 5 -5 10 -12 10 -6 0 -20 8
-31 18 -19 16 -19 16 -16 -3z"/>
<path d="M6660 8500 c0 -5 5 -10 10 -10 6 0 10 5 10 10 0 6 -4 10 -10 10 -5 0
-10 -4 -10 -10z"/>
<path d="M4026 6241 c-4 -6 2 -19 14 -31 21 -21 26 -40 10 -40 -5 0 -10 6 -10
14 0 8 -6 16 -14 19 -11 4 -11 1 -2 -19 6 -13 19 -24 28 -24 20 0 36 22 20 28
-7 2 -12 9 -12 15 -1 20 -27 49 -34 38z"/>
<path d="M6387 6153 c-11 -10 -8 -43 3 -43 5 0 9 11 8 25 -3 28 -2 27 -11 18z"/>
<path d="M6380 6090 c0 -5 5 -10 10 -10 6 0 10 5 10 10 0 6 -4 10 -10 10 -5 0
-10 -4 -10 -10z"/>
<path d="M1 2428 l-1 -2428 2438 1 c1340 1 2430 3 2422 5 -8 1 -80 8 -160 14
-879 64 -1796 398 -2535 921 -70 49 -218 160 -225 169 -3 3 -25 21 -50 40 -25
19 -47 37 -50 40 -3 3 -34 30 -70 60 -94 79 -230 209 -375 361 -434 452 -820
1062 -1045 1654 -67 175 -117 328 -164 500 -95 347 -129 546 -175 1005 -5 49
-9 -956 -10 -2342z"/>
<path d="M10227 4750 c-55 -742 -285 -1506 -644 -2138 -265 -466 -561 -844
-964 -1227 -280 -267 -627 -521 -994 -730 -618 -351 -1379 -582 -2100 -638
-133 -10 246 -12 2274 -15 1339 -1 2436 -1 2438 1 2 2 2 1095 1 2428 -2 1333
-7 2377 -11 2319z"/>
<path d="M6920 2986 c-111 -31 -206 -109 -254 -209 -76 -161 -53 -382 52 -514
106 -133 376 -174 551 -83 119 61 191 204 191 379 0 187 -69 328 -191 391 -90
47 -250 63 -349 36z m179 -188 c40 -36 63 -105 69 -198 8 -140 -23 -243 -82
-275 -68 -37 -132 11 -161 120 -34 124 -3 318 59 360 31 22 88 19 115 -7z"/>
<path d="M1784 2966 c-3 -7 -4 -40 -2 -72 3 -58 3 -59 35 -62 20 -2 34 -10 37
-20 3 -9 19 -78 36 -152 55 -243 60 -264 75 -320 19 -78 39 -174 37 -182 -1
-5 61 -8 138 -8 l139 0 11 43 c6 23 17 65 25 92 11 41 39 163 61 274 7 32 12
23 29 -45 7 -33 30 -128 51 -211 l37 -153 138 0 138 0 14 53 c46 168 78 287
86 322 6 22 25 99 44 170 l33 130 32 3 32 3 0 75 0 74 -165 0 -165 0 0 -75 0
-75 30 0 c35 0 35 1 10 -115 -11 -49 -27 -135 -36 -189 -8 -55 -16 -102 -18
-104 -6 -5 -13 25 -26 108 -10 71 -73 365 -89 420 -7 25 -10 25 -121 28 -62 1
-118 -2 -123 -7 -10 -10 -19 -49 -81 -346 -36 -174 -45 -206 -54 -185 -8 20
-60 316 -66 370 -1 10 10 16 32 18 l32 3 0 75 0 74 -190 0 c-152 0 -192 -3
-196 -14z"/>
<path d="M3220 2905 c0 -68 2 -75 20 -75 26 0 26 -4 -15 -134 -19 -61 -54
-174 -78 -251 l-43 -140 -42 -3 -42 -3 0 -75 0 -74 190 0 190 0 0 74 0 75 -47
3 c-51 3 -54 8 -33 64 9 23 12 24 134 24 l124 0 11 -31 c19 -55 16 -59 -44
-59 l-55 0 0 -75 0 -75 235 0 235 0 0 75 0 75 -40 0 -39 0 -41 133 c-23 72
-54 173 -70 222 -16 50 -45 143 -65 208 l-36 117 -225 0 -224 0 0 -75z m255
-180 c7 -22 22 -70 34 -106 11 -36 21 -71 21 -77 0 -8 -24 -12 -75 -12 -61 0
-75 3 -75 15 0 31 64 225 73 222 5 -1 15 -21 22 -42z"/>
<path d="M3974 2967 c-3 -8 -4 -41 -2 -73 3 -57 4 -59 33 -62 27 -3 40 -20
145 -195 l114 -191 1 -71 0 -70 -32 -3 -33 -3 0 -75 0 -74 185 0 185 0 0 75 0
75 -30 0 -30 0 0 76 0 76 84 147 c46 80 94 165 106 189 21 36 28 42 57 42 l33
0 0 75 0 75 -155 0 -155 0 0 -75 0 -75 30 0 30 0 -56 -110 c-31 -61 -60 -108
-65 -105 -5 4 -9 11 -9 17 0 5 -20 50 -45 99 -25 49 -45 91 -45 93 0 3 12 6
28 8 27 3 27 4 27 73 l0 70 -198 3 c-161 2 -198 0 -203 -11z"/>
<path d="M4980 2905 c0 -68 2 -75 20 -75 13 0 20 -7 20 -17 -1 -21 -142 -482
-153 -500 -5 -7 -24 -13 -43 -13 l-34 0 0 -75 0 -75 185 0 185 0 0 75 0 75
-45 0 c-51 0 -56 10 -30 60 l16 30 119 0 c65 0 121 -3 124 -8 2 -4 7 -24 11
-44 l7 -37 -53 -3 -54 -3 0 -70 0 -70 238 -3 237 -2 0 75 0 75 -40 0 c-27 0
-42 5 -49 18 -5 9 -41 123 -81 252 -39 129 -84 273 -99 320 l-27 85 -227 3
-227 2 0 -75z m279 -242 c44 -144 46 -139 -45 -135 l-76 4 7 26 c21 87 68 223
75 215 4 -4 22 -54 39 -110z"/>
<path d="M5790 2825 l0 -155 95 0 94 0 3 78 3 77 108 3 c82 2 107 0 107 -10 0
-7 -94 -126 -210 -265 l-210 -251 0 -76 0 -76 390 0 391 0 -3 153 -3 152 -95
0 -95 0 -5 -75 -5 -75 -107 -3 c-70 -2 -108 1 -108 8 0 8 198 251 220 270 3 3
52 61 108 129 l102 123 0 58 c0 99 39 90 -396 90 l-384 0 0 -155z"/>
<path d="M7514 2967 c-3 -8 -4 -41 -2 -73 3 -59 3 -59 36 -62 l32 -3 0 -264 0
-264 -32 -3 -33 -3 -3 -72 -3 -73 186 0 186 0 -3 73 -3 72 -45 5 -45 5 -3 143
c-2 88 1 142 7 142 6 0 76 -99 157 -220 l148 -220 123 0 123 0 2 338 3 337 38
3 37 3 0 75 0 74 -175 0 -176 0 3 -72 3 -73 38 -3 37 -3 0 -142 c0 -98 -3
-138 -11 -130 -5 5 -72 102 -147 214 l-137 204 -168 3 c-135 2 -168 0 -173
-11z"/>
<path d="M3103 2053 c9 -2 23 -2 30 0 6 3 -1 5 -18 5 -16 0 -22 -2 -12 -5z"/>
<path d="M2956 2028 c-29 -151 -42 -206 -68 -281 -22 -64 -27 -92 -19 -100 12
-12 9 -17 47 103 35 113 95 231 135 264 17 15 29 30 25 33 -8 8 -51 -32 -88
-82 l-29 -39 6 44 c4 25 8 50 10 57 2 7 0 15 -5 18 -5 3 -11 -4 -14 -17z"/>
<path d="M4640 2021 c0 -16 -22 -93 -50 -172 -56 -161 -53 -149 -42 -149 5 0
15 19 22 43 8 23 17 47 21 52 4 6 21 51 38 101 31 92 40 154 21 154 -5 0 -10
-13 -10 -29z"/>
<path d="M3983 2023 c9 -2 23 -2 30 0 6 3 -1 5 -18 5 -16 0 -22 -2 -12 -5z"/>
<path d="M3162 1990 c0 -19 2 -27 5 -17 2 9 2 25 0 35 -3 9 -5 1 -5 -18z"/>
<path d="M3207 2003 c-8 -15 -46 -139 -62 -203 -9 -36 -18 -73 -21 -82 -9 -29
15 -20 28 10 6 15 10 30 10 35 -1 4 13 61 32 127 18 66 30 120 25 120 -4 0
-10 -3 -12 -7z"/>
<path d="M4007 1975 c-16 -20 -23 -36 -17 -40 9 -5 50 49 50 68 0 11 -3 9 -33
-28z"/>
<path d="M7002 1950 c0 -14 2 -19 5 -12 2 6 2 18 0 25 -3 6 -5 1 -5 -13z"/>
<path d="M4133 1923 c15 -4 21 -15 18 -35 0 -5 4 -8 9 -8 13 0 13 6 0 31 -6
10 -18 18 -28 18 -16 -1 -16 -2 1 -6z"/>
<path d="M3900 1872 c0 -5 -11 -14 -25 -20 -22 -10 -65 -65 -65 -83 0 -4 15 7
33 25 19 17 46 39 61 49 14 10 24 22 21 28 -8 11 -25 12 -25 1z"/>
<path d="M6051 1864 c0 -11 3 -14 6 -6 3 7 2 16 -1 19 -3 4 -6 -2 -5 -13z"/>
<path d="M7611 1863 c0 -12 -6 -25 -11 -28 -6 -4 -8 -10 -6 -14 3 -4 -1 -29
-9 -56 -19 -60 -19 -65 1 -65 8 0 13 4 9 10 -10 16 26 109 43 113 16 4 16 5 0
6 -10 1 -18 12 -21 29 -3 21 -4 22 -6 5z"/>
<path d="M4130 1860 c-8 -5 -38 -10 -66 -10 -28 0 -59 -6 -70 -15 -22 -17 -15
-19 19 -6 29 11 53 -3 60 -34 4 -15 5 -14 6 7 1 21 8 29 36 38 19 6 35 16 35
21 0 11 -1 11 -20 -1z"/>
<path d="M6971 1854 c0 -11 3 -14 6 -6 3 7 2 16 -1 19 -3 4 -6 -2 -5 -13z"/>
<path d="M6019 1775 c-12 -54 -13 -68 -2 -77 10 -8 13 -6 13 11 0 43 24 111
40 111 13 0 13 1 0 10 -28 18 -35 10 -51 -55z"/>
<path d="M4450 1803 c-14 -15 -17 -22 -8 -14 10 7 27 10 40 6 13 -3 18 -3 12
2 -6 4 -13 14 -15 21 -3 9 -12 4 -29 -15z"/>
<path d="M6955 1811 c-3 -6 -16 -12 -28 -12 -17 -1 -18 -2 -4 -6 23 -6 22 -18
-5 -56 -12 -17 -17 -27 -11 -24 7 4 14 3 18 -3 3 -5 14 -10 23 -10 14 0 15 2
2 10 -13 8 -13 15 3 56 16 44 17 69 2 45z"/>
<path d="M3970 1790 c0 -11 4 -20 9 -20 5 0 7 9 4 20 -3 11 -7 20 -9 20 -2 0
-4 -9 -4 -20z"/>
<path d="M5037 1803 c-10 -9 -9 -23 2 -23 5 0 11 7 15 15 5 15 -5 20 -17 8z"/>
<path d="M5137 1803 c-10 -9 -9 -23 2 -23 5 0 11 7 15 15 5 15 -5 20 -17 8z"/>
<path d="M5686 1794 c-4 -10 -1 -14 6 -12 15 5 23 28 10 28 -5 0 -13 -7 -16
-16z"/>
<path d="M7507 1795 c-4 -8 -2 -17 3 -20 6 -4 10 -4 10 -1 0 2 3 11 6 20 3 9
2 16 -4 16 -5 0 -12 -7 -15 -15z"/>
<path d="M3203 1750 c-2 -28 1 -50 5 -50 4 0 8 8 9 18 1 9 5 32 9 50 5 23 3
32 -7 32 -10 0 -15 -16 -16 -50z"/>
<path d="M3338 1793 c12 -2 22 -12 22 -21 0 -24 -28 -62 -46 -62 -8 0 -14 -4
-14 -9 0 -17 39 1 55 26 23 35 16 68 -15 70 -22 1 -22 1 -2 -4z"/>
<path d="M3431 1784 c0 -11 3 -14 6 -6 3 7 2 16 -1 19 -3 4 -6 -2 -5 -13z"/>
<path d="M3460 1775 c-12 -13 -27 -22 -31 -19 -11 6 -24 -45 -14 -54 4 -4 10
-1 13 7 2 7 21 31 42 52 21 22 32 39 26 39 -7 0 -23 -11 -36 -25z"/>
<path d="M3620 1796 c0 -2 7 -6 15 -10 8 -3 15 -1 15 4 0 6 -7 10 -15 10 -8 0
-15 -2 -15 -4z"/>
<path d="M4698 1793 c7 -3 16 -2 19 1 4 3 -2 6 -13 5 -11 0 -14 -3 -6 -6z"/>
<path d="M4920 1790 c20 -13 33 -13 25 0 -3 6 -14 10 -23 10 -15 0 -15 -2 -2
-10z"/>
<path d="M5258 1793 c12 -2 22 -12 22 -21 0 -24 -28 -62 -46 -62 -8 0 -14 -4
-14 -9 0 -17 39 1 55 26 23 35 16 68 -15 70 -22 1 -22 1 -2 -4z"/>
<path d="M5367 1780 c-10 -15 -16 -17 -19 -9 -3 8 -9 -6 -15 -29 -14 -55 3
-56 36 -2 20 32 27 37 39 28 12 -10 14 -9 11 7 -6 28 -34 30 -52 5z"/>
<path d="M5460 1797 c0 -1 -4 -18 -10 -36 -5 -20 -6 -31 -1 -25 12 11 25 64
17 64 -3 0 -6 -1 -6 -3z"/>
<path d="M5534 1775 c-27 -27 -30 -75 -6 -83 9 -3 11 4 8 24 -9 47 42 100 57
62 3 -8 6 -6 6 5 1 26 -36 21 -65 -8z"/>
<path d="M5930 1790 c13 -8 12 -13 -4 -41 -10 -18 -14 -29 -7 -25 6 4 11 1 11
-8 0 -9 5 -16 11 -16 6 0 9 6 6 13 -2 6 2 27 9 46 18 43 19 41 -13 41 -22 0
-25 -2 -13 -10z"/>
<path d="M6217 1780 c-3 -11 -1 -20 4 -20 5 0 9 2 9 4 0 2 3 11 6 20 3 9 2 16
-4 16 -5 0 -12 -9 -15 -20z"/>
<path d="M6267 1754 c-26 -44 -54 -55 -51 -21 1 9 -2 14 -7 11 -14 -9 -10 -34
6 -41 9 -3 25 3 35 12 28 25 34 14 15 -30 -8 -21 -13 -40 -10 -43 2 -2 0 -13
-6 -23 -6 -13 -6 -19 0 -19 6 0 15 19 21 41 6 23 15 49 20 58 4 9 12 35 17 59
14 57 -4 56 -40 -4z"/>
<path d="M6507 1794 c-4 -4 -7 -17 -7 -28 1 -19 1 -20 11 -3 11 19 8 43 -4 31z"/>
<path d="M6571 1787 c-11 -14 -15 -38 -13 -69 3 -27 30 -22 29 5 0 12 3 34 7
50 9 29 -4 37 -23 14z"/>
<path d="M6680 1786 c-7 -9 -16 -13 -21 -10 -9 5 -13 -2 -23 -48 -9 -42 15
-35 42 12 16 28 27 38 38 33 12 -4 15 -2 12 8 -7 20 -33 23 -48 5z"/>
<path d="M7024 1778 c-19 -23 -19 -23 1 -7 11 10 29 19 40 22 19 4 19 5 -1 6
-11 0 -29 -9 -40 -21z"/>
<path d="M7178 1793 c12 -2 22 -12 22 -21 0 -24 -28 -62 -46 -62 -8 0 -14 -4
-14 -9 0 -17 39 1 55 26 23 35 16 68 -15 70 -22 1 -22 1 -2 -4z"/>
<path d="M7287 1780 c-10 -15 -16 -17 -19 -9 -3 8 -9 -6 -15 -29 -14 -55 3
-56 36 -3 16 26 29 37 39 34 10 -4 13 -1 10 8 -7 22 -35 22 -51 -1z"/>
<path d="M7683 1778 c-29 -32 -34 -72 -10 -81 10 -4 12 3 9 24 -7 45 46 93 61
57 3 -8 6 -6 6 5 1 25 -41 22 -66 -5z"/>
<path d="M7805 1788 c-28 -76 -61 -199 -54 -204 5 -3 16 12 24 33 15 38 40 94
55 124 10 19 2 59 -11 59 -6 0 -12 -6 -14 -12z"/>
<path d="M7850 1790 c-8 -5 -12 -11 -10 -14 3 -2 14 2 24 10 22 15 10 19 -14
4z"/>
<path d="M2963 1783 c9 -2 23 -2 30 0 6 3 -1 5 -18 5 -16 0 -22 -2 -12 -5z"/>
<path d="M3290 1768 c-12 -22 -12 -22 6 -6 10 10 15 20 12 24 -4 3 -12 -5 -18
-18z"/>
<path d="M3582 1767 c-24 -26 -29 -67 -8 -67 8 0 13 9 12 23 -1 12 4 32 12 45
18 28 11 28 -16 -1z"/>
<path d="M4871 1764 c-26 -33 -27 -50 -3 -63 16 -9 18 -6 14 20 -2 16 1 36 8
44 7 9 10 18 8 21 -3 3 -15 -7 -27 -22z"/>
<path d="M5210 1768 c-12 -22 -12 -22 6 -6 10 10 15 20 12 24 -4 3 -12 -5 -18
-18z"/>
<path d="M6354 1759 c-11 -23 -13 -34 -5 -42 8 -8 11 -4 11 13 0 13 7 32 17
42 9 10 11 18 5 18 -6 0 -19 -14 -28 -31z"/>
<path d="M6430 1769 c0 -11 -13 -34 -29 -50 -16 -16 -25 -29 -20 -29 20 0 59
50 59 75 0 14 -2 25 -5 25 -3 0 -5 -9 -5 -21z"/>
<path d="M7130 1768 c-12 -22 -12 -22 6 -6 10 10 15 20 12 24 -4 3 -12 -5 -18
-18z"/>
<path d="M7080 1761 c0 -10 -12 -31 -27 -46 -22 -22 -23 -25 -7 -17 26 14 40
31 48 60 5 13 3 22 -3 22 -6 0 -11 -8 -11 -19z"/>
<path d="M3496 1748 c-17 -24 -21 -48 -8 -48 4 0 12 16 18 35 13 41 11 43 -10
13z"/>
<path d="M7883 1739 c-10 -25 -9 -29 2 -19 14 12 27 50 16 50 -4 0 -12 -14
-18 -31z"/>
<path d="M5052 1740 c0 -14 2 -19 5 -12 2 6 2 18 0 25 -3 6 -5 1 -5 -13z"/>
<path d="M5152 1740 c0 -14 2 -19 5 -12 2 6 2 18 0 25 -3 6 -5 1 -5 -13z"/>
<path d="M5700 1750 c0 -5 5 -10 10 -10 6 0 10 5 10 10 0 6 -4 10 -10 10 -5 0
-10 -4 -10 -10z"/>
<path d="M7525 1751 c-3 -5 -1 -12 5 -16 5 -3 10 1 10 9 0 18 -6 21 -15 7z"/>
<path d="M7002 1730 c0 -14 2 -19 5 -12 2 6 2 18 0 25 -3 6 -5 1 -5 -13z"/>
<path d="M4631 1724 c0 -11 3 -14 6 -6 3 7 2 16 -1 19 -3 4 -6 -2 -5 -13z"/>
<path d="M4741 1724 c0 -11 3 -14 6 -6 3 7 2 16 -1 19 -3 4 -6 -2 -5 -13z"/>
<path d="M5850 1720 c0 -11 4 -20 9 -20 5 0 7 9 4 20 -3 11 -7 20 -9 20 -2 0
-4 -9 -4 -20z"/>
<path d="M6491 1723 c0 -13 3 -23 8 -23 19 0 41 12 41 23 0 7 -4 7 -12 -1 -17
-17 -26 -15 -31 6 -4 13 -5 11 -6 -5z"/>
<path d="M6841 1724 c0 -11 3 -14 6 -6 3 7 2 16 -1 19 -3 4 -6 -2 -5 -13z"/>
<path d="M5440 1710 c0 -5 5 -10 11 -10 5 0 7 5 4 10 -3 6 -8 10 -11 10 -2 0
-4 -4 -4 -10z"/>
<path d="M3898 1693 c6 -2 18 -2 25 0 6 3 1 5 -13 5 -14 0 -19 -2 -12 -5z"/>
<path d="M4253 1693 c9 -2 23 -2 30 0 6 3 -1 5 -18 5 -16 0 -22 -2 -12 -5z"/>
<path d="M6206 1596 c3 -9 13 -16 22 -16 8 0 13 1 11 3 -2 1 -12 9 -22 16 -15
12 -17 12 -11 -3z"/>
</g>
</svg>
